<mxfile host="app.diagrams.net" modified="2024-07-17T23:31:42.070Z" agent="Mozilla/5.0 (Windows NT 10.0; Win64; x64) AppleWebKit/537.36 (KHTML, like Gecko) Chrome/126.0.0.0 Safari/537.36" etag="063ulAXwvoxZ6YjEgFxE" version="24.7.1" type="device">
  <diagram name="Page-1" id="tIGgjSvchQxFNI6aPV6C">
    <mxGraphModel dx="2368" dy="1714" grid="1" gridSize="10" guides="1" tooltips="1" connect="1" arrows="1" fold="1" page="1" pageScale="1" pageWidth="850" pageHeight="1100" math="0" shadow="0">
      <root>
        <mxCell id="0" />
        <mxCell id="1" parent="0" />
        <mxCell id="cxIEdT-0C17WUTFFNS5M-1" value="UserController" style="swimlane;fillColor=#fff2cc;strokeColor=#d6b656;" parent="1" vertex="1">
          <mxGeometry x="40" y="-160" width="200" height="140" as="geometry" />
        </mxCell>
        <mxCell id="cxIEdT-0C17WUTFFNS5M-5" value="GET /users&lt;div&gt;GET /users/{id}&lt;br&gt;&lt;/div&gt;&lt;div&gt;POST /users&lt;br&gt;&lt;/div&gt;&lt;div&gt;PUT /users/{id}&lt;br&gt;&lt;/div&gt;&lt;div&gt;PATCH /users/{id}/enable&lt;br&gt;&lt;/div&gt;&lt;div&gt;PATCH /users/{id}/disable&lt;br&gt;&lt;/div&gt;&lt;div&gt;DELETE /users/{id}&lt;br&gt;&lt;/div&gt;" style="text;html=1;align=center;verticalAlign=middle;resizable=0;points=[];autosize=1;strokeColor=none;fillColor=none;" parent="cxIEdT-0C17WUTFFNS5M-1" vertex="1">
          <mxGeometry x="20" y="25" width="160" height="110" as="geometry" />
        </mxCell>
        <mxCell id="cxIEdT-0C17WUTFFNS5M-6" value="UserApplicationService" style="swimlane;fillColor=#f8cecc;strokeColor=#b85450;" parent="1" vertex="1">
          <mxGeometry x="260" y="90" width="200" height="200" as="geometry" />
        </mxCell>
        <mxCell id="cxIEdT-0C17WUTFFNS5M-7" value="GetAllUsers()&lt;div&gt;findById(userId)&lt;/div&gt;&lt;div&gt;createUser(user)&lt;/div&gt;&lt;div&gt;updateUser(userId, user)&lt;/div&gt;&lt;div&gt;enableUser(userId)&lt;/div&gt;&lt;div&gt;disableUser(userId)&lt;/div&gt;&lt;div&gt;delete(userId)&lt;/div&gt;" style="text;html=1;align=center;verticalAlign=middle;resizable=0;points=[];autosize=1;strokeColor=none;fillColor=none;" parent="cxIEdT-0C17WUTFFNS5M-6" vertex="1">
          <mxGeometry x="20" y="45" width="160" height="110" as="geometry" />
        </mxCell>
        <mxCell id="cxIEdT-0C17WUTFFNS5M-8" value="UserDomainService" style="swimlane;fillColor=#e1d5e7;strokeColor=#9673a6;" parent="1" vertex="1">
          <mxGeometry x="41" y="361" width="200" height="200" as="geometry" />
        </mxCell>
        <mxCell id="cxIEdT-0C17WUTFFNS5M-9" value="GetAllUsers()&lt;div&gt;findById(userId)&lt;/div&gt;&lt;div&gt;createUser(user)&lt;/div&gt;&lt;div&gt;updateUser(userId, user)&lt;/div&gt;&lt;div&gt;enableUser(userId)&lt;/div&gt;&lt;div&gt;disableUser(userId)&lt;/div&gt;&lt;div&gt;delete(userId)&lt;/div&gt;" style="text;html=1;align=center;verticalAlign=middle;resizable=0;points=[];autosize=1;strokeColor=none;fillColor=none;" parent="cxIEdT-0C17WUTFFNS5M-8" vertex="1">
          <mxGeometry x="20" y="45" width="160" height="110" as="geometry" />
        </mxCell>
        <mxCell id="cxIEdT-0C17WUTFFNS5M-10" value="UserRepository" style="swimlane;fillColor=#e1d5e7;strokeColor=#9673a6;" parent="1" vertex="1">
          <mxGeometry x="480" y="361" width="200" height="200" as="geometry" />
        </mxCell>
        <mxCell id="cxIEdT-0C17WUTFFNS5M-11" value="findByEmail(email)&lt;div&gt;save(user)&lt;/div&gt;&lt;div&gt;findById(userId)&lt;/div&gt;&lt;div&gt;findAll()&lt;/div&gt;&lt;div&gt;delete(user)&lt;/div&gt;" style="text;html=1;align=center;verticalAlign=middle;resizable=0;points=[];autosize=1;strokeColor=none;fillColor=none;" parent="cxIEdT-0C17WUTFFNS5M-10" vertex="1">
          <mxGeometry x="40" y="55" width="120" height="90" as="geometry" />
        </mxCell>
        <mxCell id="cxIEdT-0C17WUTFFNS5M-12" value="UserJpa" style="swimlane;fillColor=#fff2cc;strokeColor=#d6b656;" parent="1" vertex="1">
          <mxGeometry x="479" y="-160" width="200" height="110" as="geometry" />
        </mxCell>
        <mxCell id="cxIEdT-0C17WUTFFNS5M-13" value="findByEmail(email)&lt;div&gt;save(user)&lt;/div&gt;&lt;div&gt;findById(userId)&lt;/div&gt;&lt;div&gt;findAll()&lt;/div&gt;&lt;div&gt;delete(user)&lt;/div&gt;" style="text;html=1;align=center;verticalAlign=middle;resizable=0;points=[];autosize=1;strokeColor=none;fillColor=none;" parent="cxIEdT-0C17WUTFFNS5M-12" vertex="1">
          <mxGeometry x="40" y="20" width="120" height="90" as="geometry" />
        </mxCell>
        <mxCell id="cxIEdT-0C17WUTFFNS5M-14" value="CreateUseCase" style="ellipse;whiteSpace=wrap;html=1;align=center;newEdgeStyle={&quot;edgeStyle&quot;:&quot;entityRelationEdgeStyle&quot;,&quot;startArrow&quot;:&quot;none&quot;,&quot;endArrow&quot;:&quot;none&quot;,&quot;segment&quot;:10,&quot;curved&quot;:1,&quot;sourcePerimeterSpacing&quot;:0,&quot;targetPerimeterSpacing&quot;:0};treeFolding=1;treeMoving=1;fillColor=#f8cecc;strokeColor=#b85450;" parent="1" vertex="1">
          <mxGeometry x="41" y="100" width="100" height="40" as="geometry" />
        </mxCell>
        <mxCell id="cxIEdT-0C17WUTFFNS5M-15" value="UpdateUseCase" style="ellipse;whiteSpace=wrap;html=1;align=center;newEdgeStyle={&quot;edgeStyle&quot;:&quot;entityRelationEdgeStyle&quot;,&quot;startArrow&quot;:&quot;none&quot;,&quot;endArrow&quot;:&quot;none&quot;,&quot;segment&quot;:10,&quot;curved&quot;:1,&quot;sourcePerimeterSpacing&quot;:0,&quot;targetPerimeterSpacing&quot;:0};treeFolding=1;treeMoving=1;fillColor=#f8cecc;strokeColor=#b85450;" parent="1" vertex="1">
          <mxGeometry x="41" y="170" width="100" height="40" as="geometry" />
        </mxCell>
        <mxCell id="cxIEdT-0C17WUTFFNS5M-16" value="DeleteUseCase" style="ellipse;whiteSpace=wrap;html=1;align=center;newEdgeStyle={&quot;edgeStyle&quot;:&quot;entityRelationEdgeStyle&quot;,&quot;startArrow&quot;:&quot;none&quot;,&quot;endArrow&quot;:&quot;none&quot;,&quot;segment&quot;:10,&quot;curved&quot;:1,&quot;sourcePerimeterSpacing&quot;:0,&quot;targetPerimeterSpacing&quot;:0};treeFolding=1;treeMoving=1;fillColor=#f8cecc;strokeColor=#b85450;" parent="1" vertex="1">
          <mxGeometry x="40" y="248" width="100" height="40" as="geometry" />
        </mxCell>
        <mxCell id="cxIEdT-0C17WUTFFNS5M-17" value="Enable&lt;span style=&quot;background-color: initial;&quot;&gt;UseCase&lt;/span&gt;" style="ellipse;whiteSpace=wrap;html=1;align=center;newEdgeStyle={&quot;edgeStyle&quot;:&quot;entityRelationEdgeStyle&quot;,&quot;startArrow&quot;:&quot;none&quot;,&quot;endArrow&quot;:&quot;none&quot;,&quot;segment&quot;:10,&quot;curved&quot;:1,&quot;sourcePerimeterSpacing&quot;:0,&quot;targetPerimeterSpacing&quot;:0};treeFolding=1;treeMoving=1;fillColor=#f8cecc;strokeColor=#b85450;" parent="1" vertex="1">
          <mxGeometry x="579" y="100" width="100" height="40" as="geometry" />
        </mxCell>
        <mxCell id="cxIEdT-0C17WUTFFNS5M-19" value="&lt;span style=&quot;background-color: initial;&quot;&gt;DisableUseCase&lt;/span&gt;" style="ellipse;whiteSpace=wrap;html=1;align=center;newEdgeStyle={&quot;edgeStyle&quot;:&quot;entityRelationEdgeStyle&quot;,&quot;startArrow&quot;:&quot;none&quot;,&quot;endArrow&quot;:&quot;none&quot;,&quot;segment&quot;:10,&quot;curved&quot;:1,&quot;sourcePerimeterSpacing&quot;:0,&quot;targetPerimeterSpacing&quot;:0};treeFolding=1;treeMoving=1;fillColor=#f8cecc;strokeColor=#b85450;" parent="1" vertex="1">
          <mxGeometry x="579" y="150" width="100" height="40" as="geometry" />
        </mxCell>
        <mxCell id="cxIEdT-0C17WUTFFNS5M-20" value="&lt;span style=&quot;background-color: initial;&quot;&gt;GetAllUseCase&lt;/span&gt;" style="ellipse;whiteSpace=wrap;html=1;align=center;newEdgeStyle={&quot;edgeStyle&quot;:&quot;entityRelationEdgeStyle&quot;,&quot;startArrow&quot;:&quot;none&quot;,&quot;endArrow&quot;:&quot;none&quot;,&quot;segment&quot;:10,&quot;curved&quot;:1,&quot;sourcePerimeterSpacing&quot;:0,&quot;targetPerimeterSpacing&quot;:0};treeFolding=1;treeMoving=1;fillColor=#f8cecc;strokeColor=#b85450;" parent="1" vertex="1">
          <mxGeometry x="579" y="200" width="100" height="40" as="geometry" />
        </mxCell>
        <mxCell id="cxIEdT-0C17WUTFFNS5M-21" value="&lt;span style=&quot;background-color: initial;&quot;&gt;GetByIdUseCase&lt;/span&gt;" style="ellipse;whiteSpace=wrap;html=1;align=center;newEdgeStyle={&quot;edgeStyle&quot;:&quot;entityRelationEdgeStyle&quot;,&quot;startArrow&quot;:&quot;none&quot;,&quot;endArrow&quot;:&quot;none&quot;,&quot;segment&quot;:10,&quot;curved&quot;:1,&quot;sourcePerimeterSpacing&quot;:0,&quot;targetPerimeterSpacing&quot;:0};treeFolding=1;treeMoving=1;fillColor=#f8cecc;strokeColor=#b85450;" parent="1" vertex="1">
          <mxGeometry x="579" y="248" width="100" height="40" as="geometry" />
        </mxCell>
        <mxCell id="cxIEdT-0C17WUTFFNS5M-34" value="" style="endArrow=classic;startArrow=classic;html=1;rounded=0;exitX=1;exitY=0.5;exitDx=0;exitDy=0;fillColor=#f8cecc;strokeColor=#b85450;" parent="1" source="cxIEdT-0C17WUTFFNS5M-14" edge="1">
          <mxGeometry width="50" height="50" relative="1" as="geometry">
            <mxPoint x="400" y="150" as="sourcePoint" />
            <mxPoint x="260" y="120" as="targetPoint" />
          </mxGeometry>
        </mxCell>
        <mxCell id="cxIEdT-0C17WUTFFNS5M-35" value="" style="endArrow=classic;startArrow=classic;html=1;rounded=0;entryX=0.25;entryY=1;entryDx=0;entryDy=0;exitX=0.5;exitY=0;exitDx=0;exitDy=0;fillColor=#dae8fc;strokeColor=#6c8ebf;" parent="1" source="cxIEdT-0C17WUTFFNS5M-14" target="cxIEdT-0C17WUTFFNS5M-1" edge="1">
          <mxGeometry width="50" height="50" relative="1" as="geometry">
            <mxPoint x="400" y="150" as="sourcePoint" />
            <mxPoint x="450" y="100" as="targetPoint" />
          </mxGeometry>
        </mxCell>
        <mxCell id="cxIEdT-0C17WUTFFNS5M-37" value="" style="endArrow=classic;startArrow=classic;html=1;rounded=0;entryX=0.75;entryY=1;entryDx=0;entryDy=0;exitX=1;exitY=0.5;exitDx=0;exitDy=0;fillColor=#dae8fc;strokeColor=#6c8ebf;" parent="1" source="cxIEdT-0C17WUTFFNS5M-15" target="cxIEdT-0C17WUTFFNS5M-1" edge="1">
          <mxGeometry width="50" height="50" relative="1" as="geometry">
            <mxPoint x="400" y="150" as="sourcePoint" />
            <mxPoint x="450" y="100" as="targetPoint" />
            <Array as="points">
              <mxPoint x="190" y="190" />
            </Array>
          </mxGeometry>
        </mxCell>
        <mxCell id="cxIEdT-0C17WUTFFNS5M-38" value="" style="endArrow=classic;startArrow=classic;html=1;rounded=0;entryX=0.75;entryY=1;entryDx=0;entryDy=0;exitX=1;exitY=0.5;exitDx=0;exitDy=0;fillColor=#dae8fc;strokeColor=#6c8ebf;" parent="1" source="cxIEdT-0C17WUTFFNS5M-16" target="cxIEdT-0C17WUTFFNS5M-1" edge="1">
          <mxGeometry width="50" height="50" relative="1" as="geometry">
            <mxPoint x="400" y="150" as="sourcePoint" />
            <mxPoint x="450" y="100" as="targetPoint" />
            <Array as="points">
              <mxPoint x="190" y="268" />
            </Array>
          </mxGeometry>
        </mxCell>
        <mxCell id="cxIEdT-0C17WUTFFNS5M-39" value="" style="endArrow=classic;startArrow=classic;html=1;rounded=0;exitX=0.5;exitY=0;exitDx=0;exitDy=0;entryX=1;entryY=0.75;entryDx=0;entryDy=0;fillColor=#dae8fc;strokeColor=#6c8ebf;" parent="1" source="cxIEdT-0C17WUTFFNS5M-17" target="cxIEdT-0C17WUTFFNS5M-1" edge="1">
          <mxGeometry width="50" height="50" relative="1" as="geometry">
            <mxPoint x="400" y="150" as="sourcePoint" />
            <mxPoint x="450" y="100" as="targetPoint" />
            <Array as="points">
              <mxPoint x="630" y="40" />
              <mxPoint x="520" y="40" />
              <mxPoint x="280" y="40" />
              <mxPoint x="280" y="-55" />
            </Array>
          </mxGeometry>
        </mxCell>
        <mxCell id="cxIEdT-0C17WUTFFNS5M-40" value="" style="endArrow=classic;startArrow=classic;html=1;rounded=0;entryX=1;entryY=0.75;entryDx=0;entryDy=0;exitX=1;exitY=0.5;exitDx=0;exitDy=0;fillColor=#dae8fc;strokeColor=#6c8ebf;" parent="1" source="cxIEdT-0C17WUTFFNS5M-19" target="cxIEdT-0C17WUTFFNS5M-1" edge="1">
          <mxGeometry width="50" height="50" relative="1" as="geometry">
            <mxPoint x="400" y="150" as="sourcePoint" />
            <mxPoint x="450" y="100" as="targetPoint" />
            <Array as="points">
              <mxPoint x="720" y="170" />
              <mxPoint x="720" y="40" />
              <mxPoint x="520" y="40" />
              <mxPoint x="280" y="40" />
              <mxPoint x="280" y="-55" />
            </Array>
          </mxGeometry>
        </mxCell>
        <mxCell id="cxIEdT-0C17WUTFFNS5M-41" value="" style="endArrow=classic;startArrow=classic;html=1;rounded=0;entryX=1;entryY=0.75;entryDx=0;entryDy=0;exitX=1;exitY=0.5;exitDx=0;exitDy=0;fillColor=#dae8fc;strokeColor=#6c8ebf;" parent="1" source="cxIEdT-0C17WUTFFNS5M-20" target="cxIEdT-0C17WUTFFNS5M-1" edge="1">
          <mxGeometry width="50" height="50" relative="1" as="geometry">
            <mxPoint x="569" y="225" as="sourcePoint" />
            <mxPoint x="230" as="targetPoint" />
            <Array as="points">
              <mxPoint x="720" y="220" />
              <mxPoint x="720" y="40" />
              <mxPoint x="520" y="40" />
              <mxPoint x="280" y="40" />
              <mxPoint x="280" y="-55" />
            </Array>
          </mxGeometry>
        </mxCell>
        <mxCell id="cxIEdT-0C17WUTFFNS5M-43" value="" style="endArrow=classic;startArrow=classic;html=1;rounded=0;entryX=1;entryY=0.75;entryDx=0;entryDy=0;exitX=1;exitY=0.5;exitDx=0;exitDy=0;fillColor=#dae8fc;strokeColor=#6c8ebf;" parent="1" source="cxIEdT-0C17WUTFFNS5M-21" target="cxIEdT-0C17WUTFFNS5M-1" edge="1">
          <mxGeometry width="50" height="50" relative="1" as="geometry">
            <mxPoint x="579" y="265" as="sourcePoint" />
            <mxPoint x="240" y="-10" as="targetPoint" />
            <Array as="points">
              <mxPoint x="720" y="268" />
              <mxPoint x="720" y="40" />
              <mxPoint x="520" y="40" />
              <mxPoint x="280" y="40" />
              <mxPoint x="280" y="-55" />
            </Array>
          </mxGeometry>
        </mxCell>
        <mxCell id="cxIEdT-0C17WUTFFNS5M-44" value="" style="endArrow=classic;startArrow=classic;html=1;rounded=0;exitX=0.5;exitY=1;exitDx=0;exitDy=0;entryX=0;entryY=0.75;entryDx=0;entryDy=0;fillColor=#f8cecc;strokeColor=#b85450;" parent="1" source="cxIEdT-0C17WUTFFNS5M-15" target="cxIEdT-0C17WUTFFNS5M-6" edge="1">
          <mxGeometry width="50" height="50" relative="1" as="geometry">
            <mxPoint x="400" y="150" as="sourcePoint" />
            <mxPoint x="450" y="100" as="targetPoint" />
            <Array as="points">
              <mxPoint x="90" y="240" />
            </Array>
          </mxGeometry>
        </mxCell>
        <mxCell id="cxIEdT-0C17WUTFFNS5M-45" value="" style="endArrow=classic;startArrow=classic;html=1;rounded=0;exitX=0.5;exitY=1;exitDx=0;exitDy=0;entryX=0;entryY=1;entryDx=0;entryDy=0;fillColor=#f8cecc;strokeColor=#b85450;" parent="1" source="cxIEdT-0C17WUTFFNS5M-16" target="cxIEdT-0C17WUTFFNS5M-6" edge="1">
          <mxGeometry width="50" height="50" relative="1" as="geometry">
            <mxPoint x="400" y="150" as="sourcePoint" />
            <mxPoint x="450" y="100" as="targetPoint" />
          </mxGeometry>
        </mxCell>
        <mxCell id="cxIEdT-0C17WUTFFNS5M-46" value="" style="endArrow=classic;startArrow=classic;html=1;rounded=0;entryX=0;entryY=0.5;entryDx=0;entryDy=0;exitX=1;exitY=0.25;exitDx=0;exitDy=0;fillColor=#f8cecc;strokeColor=#b85450;" parent="1" source="cxIEdT-0C17WUTFFNS5M-6" target="cxIEdT-0C17WUTFFNS5M-17" edge="1">
          <mxGeometry width="50" height="50" relative="1" as="geometry">
            <mxPoint x="400" y="150" as="sourcePoint" />
            <mxPoint x="450" y="100" as="targetPoint" />
          </mxGeometry>
        </mxCell>
        <mxCell id="cxIEdT-0C17WUTFFNS5M-47" value="" style="endArrow=classic;startArrow=classic;html=1;rounded=0;entryX=0;entryY=0.5;entryDx=0;entryDy=0;exitX=1;exitY=0.5;exitDx=0;exitDy=0;fillColor=#f8cecc;strokeColor=#b85450;" parent="1" source="cxIEdT-0C17WUTFFNS5M-6" target="cxIEdT-0C17WUTFFNS5M-19" edge="1">
          <mxGeometry width="50" height="50" relative="1" as="geometry">
            <mxPoint x="400" y="150" as="sourcePoint" />
            <mxPoint x="450" y="100" as="targetPoint" />
          </mxGeometry>
        </mxCell>
        <mxCell id="cxIEdT-0C17WUTFFNS5M-48" value="" style="endArrow=classic;startArrow=classic;html=1;rounded=0;entryX=0;entryY=0.5;entryDx=0;entryDy=0;exitX=1;exitY=0.5;exitDx=0;exitDy=0;fillColor=#f8cecc;strokeColor=#b85450;" parent="1" source="cxIEdT-0C17WUTFFNS5M-6" target="cxIEdT-0C17WUTFFNS5M-20" edge="1">
          <mxGeometry width="50" height="50" relative="1" as="geometry">
            <mxPoint x="400" y="150" as="sourcePoint" />
            <mxPoint x="450" y="100" as="targetPoint" />
          </mxGeometry>
        </mxCell>
        <mxCell id="cxIEdT-0C17WUTFFNS5M-49" value="" style="endArrow=classic;startArrow=classic;html=1;rounded=0;entryX=0;entryY=0.5;entryDx=0;entryDy=0;exitX=1;exitY=0.75;exitDx=0;exitDy=0;fillColor=#f8cecc;strokeColor=#b85450;" parent="1" source="cxIEdT-0C17WUTFFNS5M-6" target="cxIEdT-0C17WUTFFNS5M-21" edge="1">
          <mxGeometry width="50" height="50" relative="1" as="geometry">
            <mxPoint x="400" y="150" as="sourcePoint" />
            <mxPoint x="450" y="100" as="targetPoint" />
          </mxGeometry>
        </mxCell>
        <mxCell id="cxIEdT-0C17WUTFFNS5M-50" value="Project user" style="shape=umlActor;verticalLabelPosition=bottom;verticalAlign=top;html=1;outlineConnect=0;fillColor=#d5e8d4;strokeColor=#82b366;" parent="1" vertex="1">
          <mxGeometry x="241" y="-340" width="30" height="60" as="geometry" />
        </mxCell>
        <mxCell id="cxIEdT-0C17WUTFFNS5M-53" value="" style="endArrow=classic;startArrow=classic;html=1;rounded=0;exitX=0.5;exitY=0;exitDx=0;exitDy=0;entryX=0.487;entryY=0.333;entryDx=0;entryDy=0;entryPerimeter=0;fillColor=#dae8fc;strokeColor=#6c8ebf;" parent="1" source="cxIEdT-0C17WUTFFNS5M-1" target="cxIEdT-0C17WUTFFNS5M-50" edge="1">
          <mxGeometry width="50" height="50" relative="1" as="geometry">
            <mxPoint x="400" y="-200" as="sourcePoint" />
            <mxPoint x="450" y="-250" as="targetPoint" />
            <Array as="points">
              <mxPoint x="140" y="-320" />
            </Array>
          </mxGeometry>
        </mxCell>
        <mxCell id="cxIEdT-0C17WUTFFNS5M-55" value="" style="endArrow=classic;startArrow=classic;html=1;rounded=0;exitX=0.5;exitY=0;exitDx=0;exitDy=0;entryX=0.5;entryY=1;entryDx=0;entryDy=0;fillColor=#dae8fc;strokeColor=#6c8ebf;" parent="1" source="cxIEdT-0C17WUTFFNS5M-8" target="cxIEdT-0C17WUTFFNS5M-6" edge="1">
          <mxGeometry width="50" height="50" relative="1" as="geometry">
            <mxPoint x="400" y="300" as="sourcePoint" />
            <mxPoint x="450" y="250" as="targetPoint" />
            <Array as="points">
              <mxPoint x="141" y="320" />
              <mxPoint x="360" y="320" />
            </Array>
          </mxGeometry>
        </mxCell>
        <mxCell id="cxIEdT-0C17WUTFFNS5M-56" value="" style="endArrow=classic;startArrow=classic;html=1;rounded=0;exitX=1;exitY=0.5;exitDx=0;exitDy=0;entryX=0;entryY=0.5;entryDx=0;entryDy=0;fillColor=#e1d5e7;strokeColor=#9673a6;" parent="1" source="cxIEdT-0C17WUTFFNS5M-8" target="cxIEdT-0C17WUTFFNS5M-10" edge="1">
          <mxGeometry width="50" height="50" relative="1" as="geometry">
            <mxPoint x="400" y="340" as="sourcePoint" />
            <mxPoint x="450" y="290" as="targetPoint" />
          </mxGeometry>
        </mxCell>
        <mxCell id="cxIEdT-0C17WUTFFNS5M-58" value="" style="endArrow=classic;startArrow=classic;html=1;rounded=0;exitX=1;exitY=0.5;exitDx=0;exitDy=0;entryX=1;entryY=0.5;entryDx=0;entryDy=0;fillColor=#dae8fc;strokeColor=#6c8ebf;" parent="1" source="cxIEdT-0C17WUTFFNS5M-10" target="cxIEdT-0C17WUTFFNS5M-12" edge="1">
          <mxGeometry width="50" height="50" relative="1" as="geometry">
            <mxPoint x="720" y="360" as="sourcePoint" />
            <mxPoint x="450" y="160" as="targetPoint" />
            <Array as="points">
              <mxPoint x="760" y="460" />
              <mxPoint x="760" y="-105" />
            </Array>
          </mxGeometry>
        </mxCell>
        <mxCell id="cxIEdT-0C17WUTFFNS5M-59" value="Local&lt;br&gt;database" style="shape=cylinder3;whiteSpace=wrap;html=1;boundedLbl=1;backgroundOutline=1;size=15;fillColor=#d5e8d4;strokeColor=#82b366;" parent="1" vertex="1">
          <mxGeometry x="549" y="-350" width="60" height="80" as="geometry" />
        </mxCell>
        <mxCell id="cxIEdT-0C17WUTFFNS5M-60" value="" style="endArrow=classic;startArrow=classic;html=1;rounded=0;exitX=0.5;exitY=0;exitDx=0;exitDy=0;entryX=0.5;entryY=1;entryDx=0;entryDy=0;entryPerimeter=0;fillColor=#dae8fc;strokeColor=#6c8ebf;" parent="1" source="cxIEdT-0C17WUTFFNS5M-12" target="cxIEdT-0C17WUTFFNS5M-59" edge="1">
          <mxGeometry width="50" height="50" relative="1" as="geometry">
            <mxPoint x="400" y="-270" as="sourcePoint" />
            <mxPoint x="450" y="-320" as="targetPoint" />
          </mxGeometry>
        </mxCell>
        <mxCell id="cxIEdT-0C17WUTFFNS5M-61" value="" style="swimlane;startSize=0;fillColor=#fff2cc;strokeColor=#d6b656;" parent="1" vertex="1">
          <mxGeometry x="20" y="-180" width="760" height="180" as="geometry" />
        </mxCell>
        <mxCell id="cxIEdT-0C17WUTFFNS5M-62" value="Infrastructure" style="text;html=1;align=center;verticalAlign=middle;resizable=0;points=[];autosize=1;strokeColor=#d6b656;fillColor=#fff2cc;" parent="1" vertex="1">
          <mxGeometry x="-80" y="-120" width="90" height="30" as="geometry" />
        </mxCell>
        <mxCell id="cxIEdT-0C17WUTFFNS5M-63" value="" style="swimlane;startSize=0;fillColor=#f8cecc;strokeColor=#b85450;" parent="1" vertex="1">
          <mxGeometry x="20" y="80" width="760" height="230" as="geometry" />
        </mxCell>
        <mxCell id="cxIEdT-0C17WUTFFNS5M-64" value="Application" style="text;html=1;align=center;verticalAlign=middle;resizable=0;points=[];autosize=1;strokeColor=#b85450;fillColor=#f8cecc;" parent="1" vertex="1">
          <mxGeometry x="-70" y="175" width="80" height="30" as="geometry" />
        </mxCell>
        <mxCell id="cxIEdT-0C17WUTFFNS5M-65" value="" style="swimlane;startSize=0;fillColor=#e1d5e7;strokeColor=#9673a6;" parent="1" vertex="1">
          <mxGeometry x="20" y="350" width="760" height="230" as="geometry" />
        </mxCell>
        <mxCell id="Un6qE_D3NydkJgdWxQmM-3" value="" style="verticalLabelPosition=bottom;verticalAlign=top;html=1;shape=mxgraph.basic.patternFillRect;fillStyle=diag;step=5;fillStrokeWidth=0.2;fillStrokeColor=#dddddd;fillColor=none;strokeColor=#82b366;" vertex="1" parent="1">
          <mxGeometry x="20" y="-360" width="760" height="120" as="geometry" />
        </mxCell>
        <mxCell id="cxIEdT-0C17WUTFFNS5M-66" value="Domain" style="text;html=1;align=center;verticalAlign=middle;resizable=0;points=[];autosize=1;strokeColor=#9673a6;fillColor=#e1d5e7;" parent="1" vertex="1">
          <mxGeometry x="-50" y="446" width="60" height="30" as="geometry" />
        </mxCell>
        <mxCell id="Un6qE_D3NydkJgdWxQmM-4" value="Actors (external)" style="text;html=1;align=center;verticalAlign=middle;resizable=0;points=[];autosize=1;strokeColor=#82b366;fillColor=#d5e8d4;" vertex="1" parent="1">
          <mxGeometry x="-100" y="-315" width="110" height="30" as="geometry" />
        </mxCell>
      </root>
    </mxGraphModel>
  </diagram>
</mxfile>
